<?xml version="1.0" standalone="no"?>
<!DOCTYPE svg PUBLIC "-//W3C//DTD SVG 20010904//EN"
 "http://www.w3.org/TR/2001/REC-SVG-20010904/DTD/svg10.dtd">
<svg version="1.0" xmlns="http://www.w3.org/2000/svg"
 width="852.000000pt" height="480.000000pt" viewBox="0 0 852.000000 480.000000"
 preserveAspectRatio="xMidYMid meet">
<metadata>
Created by potrace 1.16, written by Peter Selinger 2001-2019
</metadata>
<g transform="translate(0.000000,480.000000) scale(0.100000,-0.100000)"
fill="#000000" stroke="none">
<path d="M3590 4236 c0 -33 -4 -38 -44 -58 -57 -27 -81 -69 -73 -128 7 -54 29
-76 119 -120 83 -40 108 -72 93 -117 -6 -17 -24 -35 -48 -46 -37 -19 -62 -17
-143 8 -16 5 -23 2 -27 -15 -6 -25 21 -45 76 -55 35 -7 37 -9 37 -46 0 -35 3
-39 24 -39 22 0 25 5 28 42 2 34 7 44 23 46 37 7 84 51 96 90 24 81 -20 149
-122 188 -46 17 -99 64 -99 88 0 7 9 25 21 40 17 22 28 26 70 26 28 0 60 -5
71 -11 22 -12 35 -4 40 25 2 16 -7 23 -47 35 -45 15 -50 19 -50 46 0 23 -5 31
-23 33 -19 3 -22 -1 -22 -32z"/>
<path d="M4874 3092 c-88 -64 -189 -140 -227 -167 l-67 -50 231 -3 c127 -1
332 -1 455 0 l225 3 -202 150 c-111 83 -214 158 -229 168 l-28 17 -158 -118z"/>
<path d="M3215 3016 c-22 -7 -56 -21 -75 -31 -27 -15 -57 -19 -135 -20 -55 0
-113 4 -130 9 l-30 9 35 -38 c33 -35 34 -37 10 -30 -14 4 -45 18 -69 31 -24
13 -46 24 -48 24 -4 0 2 -26 15 -59 6 -15 -21 -10 -72 15 -16 8 -31 12 -34 9
-9 -8 37 -106 78 -166 l40 -59 0 -175 c0 -145 2 -175 14 -175 10 0 19 20 26
58 15 73 47 203 52 208 2 2 33 -8 68 -23 59 -23 73 -25 169 -21 113 5 164 20
238 69 39 26 44 27 52 11 17 -33 43 -124 60 -210 14 -65 22 -88 35 -90 16 -3
17 16 15 245 -1 220 1 248 15 251 21 5 21 5 -14 44 -30 32 -30 32 -30 8 0 -25
0 -25 -18 5 -58 95 -162 134 -267 101z"/>
<path d="M4518 2643 c288 -2 756 -2 1040 0 284 1 49 2 -523 2 -572 0 -805 -1
-517 -2z"/>
<path d="M3272 2514 c-38 -26 -27 -39 28 -36 27 2 50 8 50 12 0 9 -39 40 -50
40 -3 0 -16 -7 -28 -16z"/>
<path d="M4518 2523 c288 -2 756 -2 1040 0 284 1 49 2 -523 2 -572 0 -805 -1
-517 -2z"/>
<path d="M2993 2508 c-25 -33 -23 -36 25 -30 56 6 58 7 42 27 -15 18 -54 20
-67 3z"/>
<path d="M4606 2455 c-4 -13 -45 -15 -268 -17 l-263 -3 255 -3 255 -2 12 -26
c9 -19 9 -27 0 -36 -8 -7 -11 -55 -9 -159 l3 -149 215 0 214 0 0 -556 c0 -524
1 -555 18 -552 16 3 17 38 19 553 l2 550 211 3 212 2 -2 168 c-1 92 -2 175 -1
184 1 16 23 18 264 21 l262 2 -268 3 c-227 2 -268 4 -273 17 -5 13 -62 15
-429 15 -367 0 -424 -2 -429 -15z m744 -130 c0 -9 7 -18 15 -22 9 -3 22 -18
30 -34 18 -33 7 -71 -25 -91 -11 -7 -20 -18 -20 -25 0 -10 -68 -13 -315 -13
-223 0 -315 3 -315 11 0 6 -11 20 -25 31 -18 14 -25 29 -25 54 0 24 8 42 25
58 14 13 25 28 25 35 0 8 87 11 315 11 276 0 315 -2 315 -15z"/>
<path d="M4760 2236 l0 -66 41 0 c22 0 49 5 60 10 19 11 26 40 12 54 -4 4 -7
19 -8 34 0 25 -3 27 -52 30 l-53 3 0 -65z m65 24 c-3 -5 -10 -10 -16 -10 -5 0
-9 5 -9 10 0 6 7 10 16 10 8 0 12 -4 9 -10z m5 -51 c0 -5 -7 -9 -15 -9 -15 0
-20 12 -9 23 8 8 24 -1 24 -14z"/>
<path d="M4906 2248 c-9 -29 -20 -59 -23 -65 -6 -17 21 -17 47 -1 16 10 24 10
40 0 26 -16 54 -16 47 1 -2 6 -13 36 -23 65 -16 44 -22 52 -45 52 -22 0 -28
-7 -43 -52z m54 -13 c0 -8 -4 -15 -10 -15 -5 0 -10 7 -10 15 0 8 5 15 10 15 6
0 10 -7 10 -15z"/>
<path d="M5030 2235 c0 -58 2 -65 20 -65 16 0 20 7 20 32 l0 33 23 -32 c12
-18 30 -33 40 -33 14 0 17 10 17 65 0 58 -2 65 -20 65 -15 0 -20 -7 -20 -27
l-1 -28 -20 28 c-11 15 -29 27 -40 27 -17 0 -19 -8 -19 -65z"/>
<path d="M5179 2268 c-10 -87 18 -133 42 -70 10 26 11 26 25 8 8 -11 14 -23
14 -28 0 -4 11 -8 25 -8 30 0 31 3 4 47 l-21 34 23 25 22 24 -28 0 c-16 0 -37
-7 -47 -17 -17 -15 -18 -15 -18 0 0 10 -8 17 -19 17 -14 0 -20 -9 -22 -32z"/>
<path d="M4685 2241 c-7 -12 12 -24 25 -16 11 7 4 25 -10 25 -5 0 -11 -4 -15
-9z"/>
<path d="M5360 2234 c0 -17 22 -14 28 4 2 7 -3 12 -12 12 -9 0 -16 -7 -16 -16z"/>
<path d="M3017 2414 c5 -13 3 -16 -10 -11 -21 8 -23 -16 -2 -33 12 -10 18 -10
30 0 20 17 15 54 -7 58 -13 3 -16 -1 -11 -14z"/>
<path d="M3297 2414 c5 -13 3 -16 -10 -11 -21 8 -23 -16 -2 -33 12 -10 18 -10
30 0 20 17 15 54 -7 58 -13 3 -16 -1 -11 -14z"/>
<path d="M3070 2206 c0 -31 42 -82 74 -90 36 -9 73 9 96 46 38 63 32 68 -75
68 -94 0 -95 0 -95 -24z"/>
<path d="M3147 2023 c-4 -3 -7 -11 -7 -17 0 -6 4 -4 10 4 8 13 9 13 14 0 13
-43 14 -44 15 -24 1 23 -21 48 -32 37z"/>
<path d="M3123 1960 c0 -25 2 -35 4 -22 2 12 2 32 0 45 -2 12 -4 2 -4 -23z"/>
<path d="M3191 1934 c0 -11 3 -14 6 -6 3 7 2 16 -1 19 -3 4 -6 -2 -5 -13z"/>
<path d="M3112 1865 c0 -16 2 -22 5 -12 2 9 2 23 0 30 -3 6 -5 -1 -5 -18z"/>
<path d="M3201 1854 c0 -11 3 -14 6 -6 3 7 2 16 -1 19 -3 4 -6 -2 -5 -13z"/>
<path d="M3100 1776 c0 -8 7 -16 15 -20 13 -4 14 -2 5 14 -13 23 -20 26 -20 6z"/>
<path d="M3207 1771 c-4 -17 -3 -21 5 -13 5 5 8 16 6 23 -3 8 -7 3 -11 -10z"/>
<path d="M3102 1690 c0 -14 2 -19 5 -12 2 6 2 18 0 25 -3 6 -5 1 -5 -13z"/>
<path d="M3219 1668 c4 -28 6 -29 9 -9 2 13 0 27 -5 32 -6 6 -7 -3 -4 -23z"/>
<path d="M3090 1611 c0 -11 4 -22 9 -25 4 -3 6 6 3 19 -5 30 -12 33 -12 6z"/>
<path d="M3215 1590 c-10 -11 -16 -22 -14 -24 2 -2 12 7 22 20 22 29 17 32 -8
4z"/>
<path d="M3126 1545 c9 -14 19 -24 21 -21 7 7 -16 46 -28 46 -5 0 -2 -11 7
-25z"/>
<path d="M3150 1560 c0 -5 5 -10 10 -10 6 0 10 5 10 10 0 6 -4 10 -10 10 -5 0
-10 -4 -10 -10z"/>
<path d="M2895 1438 c9 -40 31 -86 55 -113 15 -18 18 -53 24 -302 7 -283 7
-283 -14 -283 -53 0 -110 -61 -110 -118 0 -28 3 -29 100 -41 47 -6 100 -14
118 -17 31 -5 32 -4 32 31 0 20 -5 46 -11 57 -8 15 -9 101 -4 300 l7 279 64
-3 c63 -2 64 -3 69 -33 6 -36 9 -553 4 -610 l-4 -40 90 -12 c50 -6 107 -12
128 -12 35 -1 37 1 37 29 0 58 -51 124 -106 139 l-29 8 3 288 3 288 30 35 c50
56 68 132 32 132 -10 0 -108 7 -218 15 -110 8 -224 15 -253 15 l-54 0 7 -32z"/>
<path d="M3980 994 l0 -33 345 -1 c211 0 345 3 345 9 0 5 -8 12 -17 14 -17 4
-17 5 0 6 9 0 17 7 17 15 0 8 -8 17 -17 20 -10 3 -165 5 -345 4 l-328 -1 0
-33z"/>
<path d="M5402 994 l-1 -34 345 0 345 0 -3 33 -3 32 -341 2 -341 2 -1 -35z"/>
</g>
</svg>
